<svg width="73" height="73" fill="none" xmlns="http://www.w3.org/2000/svg"><g filter="url(#filter0_d)"><circle cx="36.688" cy="36.011" r="27.5" transform="rotate(22.81 36.688 36.01)" fill="#fff"/></g><path d="M30.037 45.018l.038-2.604a202.68 202.68 0 003.514-2.89 34.87 34.87 0 003.065-2.84c.91-.938 1.633-1.852 2.168-2.74.555-.907.838-1.79.85-2.648.012-.803-.201-1.515-.64-2.138-.42-.622-1.135-.94-2.143-.955-1.026-.015-1.806.31-2.338.974-.532.665-.806 1.473-.82 2.425l-3.471-.05c.058-1.437.393-2.627 1.004-3.57.611-.962 1.415-1.67 2.41-2.122.997-.47 2.111-.697 3.343-.68 1.997.03 3.538.603 4.623 1.72 1.105 1.099 1.644 2.516 1.62 4.252a7.103 7.103 0 01-.802 3.152c-.5 1.02-1.159 2-1.975 2.94a27.2 27.2 0 01-2.643 2.65 85.297 85.297 0 01-2.749 2.257l8.483.122-.042 2.94-13.495-.195z" fill="#0D6BD8"/><defs><filter id="filter0_d" x="5.181" y="8.503" width="63.014" height="63.014" filterUnits="userSpaceOnUse" color-interpolation-filters="sRGB"><feFlood flood-opacity="0" result="BackgroundImageFix"/><feColorMatrix in="SourceAlpha" values="0 0 0 0 0 0 0 0 0 0 0 0 0 0 0 0 0 0 127 0" result="hardAlpha"/><feOffset dy="4"/><feGaussianBlur stdDeviation="2"/><feColorMatrix values="0 0 0 0 0 0 0 0 0 0 0 0 0 0 0 0 0 0 0.25 0"/><feBlend in2="BackgroundImageFix" result="effect1_dropShadow"/><feBlend in="SourceGraphic" in2="effect1_dropShadow" result="shape"/></filter></defs></svg>