<svg width="140" height="33" fill="none" xmlns="http://www.w3.org/2000/svg"><path d="M4.052 3.072l.863 2.144c.4.97.85 2.081 1.35 3.332a179.116 179.116 0 011.614 3.983 511.236 511.236 0 011.613 3.984l1.35 3.37c.4.97.688 1.672.864 2.106.024.051.087.23.187.536.1.307.175.575.225.805l.375-1.34c.175-.435.463-1.137.863-2.107l1.35-3.37a625.58 625.58 0 001.577-3.984 508.578 508.578 0 001.613-3.983c.525-1.25.988-2.361 1.388-3.332l.863-2.144h4.052c-.15.357-.425 1.008-.826 1.953a725.48 725.48 0 01-1.388 3.37 460.279 460.279 0 01-1.838 4.366 345.15 345.15 0 01-2.026 4.826 461.584 461.584 0 01-2.026 4.826c-.65 1.582-1.25 3.038-1.8 4.366a156.815 156.815 0 01-1.389 3.408 242.9 242.9 0 01-.788 1.915L0 3.072h4.052zM31.38 30.838V3.072h17.86v3.791H35.507v8.12h12.23v3.868h-12.23v8.119h14.257v3.868H31.38zm26.907 0V3.072h7.429c1.425 0 2.726.191 3.902.574 1.2.383 2.226.958 3.076 1.724a7.42 7.42 0 012.026 2.757c.475 1.072.713 2.31.713 3.715 0 .766-.075 1.532-.225 2.298-.15.74-.4 1.468-.75 2.183a8.73 8.73 0 01-1.276 1.953 7.08 7.08 0 01-1.914 1.494c1 1.608 2.089 3.396 3.264 5.362a244.11 244.11 0 003.565 5.706h-4.915l-1.576-2.49a88.027 88.027 0 00-1.613-2.565c-.526-.868-1.05-1.71-1.576-2.528-.5-.842-.975-1.621-1.426-2.336h-4.577v9.92h-4.127zm4.127-13.864h3.714c1 0 1.839-.166 2.514-.498.675-.357 1.2-.791 1.576-1.302.4-.51.675-1.06.825-1.647.175-.587.263-1.123.263-1.608a5.29 5.29 0 00-.263-1.57 4.098 4.098 0 00-.825-1.61c-.4-.51-.938-.931-1.614-1.263-.65-.332-1.463-.498-2.438-.498h-3.752v9.996zm38.753-12.37l-1.463 3.408a23.44 23.44 0 00-3.076-.919 12.9 12.9 0 00-2.89-.345c-1.575 0-2.838.332-3.789.996-.925.664-1.388 1.507-1.388 2.528 0 .868.338 1.57 1.013 2.106.675.51 1.513.983 2.514 1.417 1 .409 2.088.83 3.264 1.264 1.175.409 2.263.945 3.264 1.609a8.877 8.877 0 012.514 2.527c.675.996 1.013 2.285 1.013 3.869 0 1.225-.226 2.336-.676 3.331-.425.97-1.075 1.813-1.95 2.528-.851.715-1.927 1.264-3.227 1.647-1.276.383-2.777.575-4.502.575-1.1 0-2.101-.077-3.002-.23a18.56 18.56 0 01-2.4-.575 16.732 16.732 0 01-1.877-.804c-.525-.28-.975-.536-1.35-.766l1.8-3.638a14.693 14.693 0 003.34 1.417c1.225.357 2.338.536 3.339.536.5 0 1.113-.064 1.838-.192a8.671 8.671 0 002.139-.65 5.546 5.546 0 001.725-1.303c.5-.536.75-1.213.75-2.03 0-.74-.2-1.366-.6-1.876-.375-.537-.887-.996-1.538-1.379a10.908 10.908 0 00-2.176-1.072c-.8-.332-1.626-.664-2.476-.996a75.107 75.107 0 01-2.514-1.11c-.8-.384-1.525-.843-2.176-1.38a7.46 7.46 0 01-1.538-1.915c-.375-.74-.563-1.62-.563-2.642 0-.945.188-1.877.563-2.796a7.029 7.029 0 011.688-2.451c.75-.715 1.676-1.29 2.777-1.723 1.125-.435 2.426-.652 3.901-.652.9 0 1.776.077 2.627.23.875.153 1.663.332 2.363.536.7.18 1.288.358 1.764.537.5.178.825.306.975.383z" fill="#fff"/><path fill-rule="evenodd" clip-rule="evenodd" d="M126.91 4.335l7.839 7.83a6.125 6.125 0 010 8.67l-7.839 7.83a6.14 6.14 0 01-8.678 0l-7.839-7.83a6.125 6.125 0 010-8.67l7.839-7.83a6.14 6.14 0 018.678 0zm-2.479 2.477a2.633 2.633 0 00-3.72 0l-7.838 7.83a2.624 2.624 0 000 3.716l7.838 7.83a2.633 2.633 0 003.72 0l7.839-7.83a2.625 2.625 0 000-3.716l-7.839-7.83z" fill="#fff"/></svg>